<svg version="1.1" xmlns="http://www.w3.org/2000/svg" xmlns:xlink="http://www.w3.org/1999/xlink" width="1560" height="804"><defs/><g><path fill="none" stroke="#02063B" paint-order="fill stroke markers" d=" M 20 408.6617294923393 L 21 408.99428473375326 L 22 409.3267622609644 L 23 409.65915837978133 L 24 409.9914693969173 L 25 410.323691620031 L 26 410.655821357768 L 27 410.9878549198011 L 28 411.319788616872 L 29 411.651618760832 L 30 411.9833416646828 L 31 412.3149536426178 L 32 412.64645101006295 L 33 412.9778300837175 L 34 413.30908718159515 L 35 413.6402186230649 L 36 413.9712207288919 L 37 414.30208982127846 L 38 414.63282222390467 L 39 414.9634142619695 L 40 415.2938622622314 L 41 415.6241625530494 L 42 415.95431146442365 L 43 416.2843053280363 L 44 416.61414047729227 L 45 416.9438132473599 L 46 417.2733199752119 L 47 417.6026569996658 L 48 417.9318206614246 L 49 418.26080730311776 L 50 418.5896132693415 L 51 418.9182349066996 L 52 419.2466685638439 L 53 419.57491059151494 L 54 419.9029573425824 L 55 420.23080517208587 L 56 420.5584504372749 L 57 420.88588949765006 L 58 421.21311871500285 L 59 421.5401344534565 L 60 421.8669330795061 L 61 422.19351096205924 L 62 422.5198644724761 L 63 422.84598998460996 L 64 423.1718838748473 L 65 423.4975425221483 L 66 423.8229623080869 L 67 424.14813961689106 L 68 424.4730708354829 L 69 424.79775235351883 L 70 425.1221805634299 L 71 425.4463518604614 L 72 425.7702626427135 L 73 426.0939093111807 L 74 426.4172882697924 L 75 426.7403959254523 L 76 427.06322868807865 L 77 427.38578297064413 L 78 427.7080551892155 L 79 428.03004176299373 L 80 428.3517391143535 L 81 428.6731436688831 L 82 428.9942518554241 L 83 429.31506010611116 L 84 429.6355648564114 L 85 429.95576254516413 L 86 430.2756496146207 L 87 430.59522251048355 L 88 430.91447768194604 L 89 431.23341158173173 L 90 431.55202066613396 L 91 431.87030139505504 L 92 432.1882502320457 L 93 432.50586364434434 L 94 432.82313810291635 L 95 433.14007008249325 L 96 433.4566560616118 L 97 433.77289252265325 L 98 434.0887759518825 L 99 434.40430283948683 L 100 434.7194696796152 L 101 435.03427297041713 L 102 435.34870921408145 L 103 435.6627749168754 L 104 435.9764665891832 L 105 436.28978074554516 L 106 436.60271390469603 L 107 436.91526258960397 L 108 437.227423327509 L 109 437.5391926499617 L 110 437.8505670928617 L 111 438.1615431964962 L 112 438.4721175055783 L 113 438.7822865692856 L 114 439.0920469412983 L 115 439.40139517983766 L 116 439.7103278477043 L 117 440.01884151231616 L 118 440.3269327457468 L 119 440.63459812476344 L 120 440.9418342308651 L 121 441.2486376503203 L 122 441.5550049742055 L 123 441.86093279844226 L 124 442.1664177238359 L 125 442.47145635611247 L 126 442.77604530595704 L 127 443.080181189051 L 128 443.38386062611 L 129 443.68708024292107 L 130 443.98983667038056 L 131 444.2921265445313 L 132 444.5939465066 L 133 444.89529320303456 L 134 445.1961632855415 L 135 445.49655341112305 L 136 445.7964602421141 L 137 446.09588044621984 L 138 446.394810696552 L 139 446.6932476716665 L 140 446.9911880556 L 141 447.28862853790685 L 142 447.5855658136959 L 143 447.8819965836671 L 144 448.1779175541483 L 145 448.47332543713173 L 146 448.7682169503107 L 147 449.0625888171158 L 148 449.3564377667516 L 149 449.64976053423266 L 150 449.9425538604203 L 151 450.23481449205826 L 152 450.52653918180926 L 153 450.81772468829075 L 154 451.1083677761113 L 155 451.39846521590624 L 156 451.68801378437365 L 157 451.97701026431025 L 158 452.26545144464694 L 159 452.5533341204847 L 160 452.8406550931301 L 161 453.12741117013087 L 162 453.4135991653113 L 163 453.6992158988077 L 164 453.9842581971038 L 165 454.2687228930659 L 166 454.55260682597805 L 167 454.8359068415772 L 168 455.11861979208834 L 169 455.40074253625943 L 170 455.6822719393961 L 171 455.96320487339693 L 172 456.2435382167876 L 173 456.5232688547562 L 174 456.80239367918733 L 175 457.08090958869695 L 176 457.3588134886667 L 177 457.63610229127835 L 178 457.9127729155481 L 179 458.1888222873606 L 180 458.4642473395035 L 181 458.7390450117014 L 182 459.01321225064953 L 183 459.28674601004815 L 184 459.559643250636 L 185 459.8319009402243 L 186 460.1035160537305 L 187 460.37448557321164 L 188 460.6448064878981 L 189 460.914475794227 L 190 461.1834904958753 L 191 461.4518476037937 L 192 461.7195441362392 L 193 461.9865771188087 L 194 462.25294358447184 L 195 462.51864057360393 L 196 462.783665134019 L 197 463.04801432100226 L 198 463.31168519734337 L 199 463.57467483336865 L 200 463.8369803069737 L 201 464.09859870365597 L 202 464.35952711654704 L 203 464.6197626464451 L 204 464.87930240184687 L 205 465.13814349897996 L 206 465.3962830618348 L 207 465.6537182221968 L 208 465.91044611967783 L 209 466.1664639017484 L 210 466.4217687237691 L 211 466.6763577490223 L 212 466.9302281487437 L 213 467.18337710215366 L 214 467.4358017964887 L 215 467.68749942703244 L 216 467.9384671971473 L 217 468.188702318305 L 218 468.43820201011795 L 219 468.68696350036976 L 220 468.9349840250466 L 221 469.18226082836736 L 222 469.4287911628145 L 223 469.67457228916464 L 224 469.919601476519 L 225 470.1638760023334 L 226 470.4073931524491 L 227 470.65015022112243 L 228 470.8921445110551 L 229 471.1333733334243 L 230 471.373834007912 L 231 471.6135238627357 L 232 471.85244023467703 L 233 472.0905804691122 L 234 472.327941920041 L 235 472.5645219501165 L 236 472.80031793067405 L 237 473.0353272417608 L 238 473.2695472721645 L 239 473.5029754194429 L 240 473.7356090899523 L 241 473.9674456988764 L 242 474.19848267025543 L 243 474.42871743701426 L 244 474.6581474409911 L 245 474.88677013296615 L 246 475.11458297268956 L 247 475.34158342891 L 248 475.56776897940233 L 249 475.79313711099627 L 250 476.01768531960374 L 251 476.2414111102469 L 252 476.46431199708593 L 253 476.6863855034467 L 254 476.907629161848 L 255 477.1280405140293 L 256 477.34761711097775 L 257 477.56635651295574 L 258 477.78425628952766 L 259 478.0013140195872 L 260 478.217527291384 L 261 478.4328937025505 L 262 478.6474108601289 L 263 478.86107638059747 L 264 479.0738878898969 L 265 479.28584302345723 L 266 479.49693942622355 L 267 479.70717475268236 L 268 479.9165466668879 L 269 480.12505284248755 L 270 480.33269096274836 L 271 480.53945872058205 L 272 480.74535381857135 L 273 480.95037396899505 L 274 481.1545168938535 L 275 481.3577803248942 L 276 481.5601620036366 L 277 481.7616596813975 L 278 481.9622711193158 L 279 482.1619940883777 L 280 482.3608263694411 L 281 482.5587657532605 L 282 482.7558100405114 L 283 482.9519570418149 L 284 483.14720457776195 L 285 483.3415504789374 L 286 483.53499258594434 L 287 483.7275287494281 L 288 483.91915683009984 L 289 484.10987469876073 L 290 484.2996802363253 L 291 484.488571333845 L 292 484.6765458925319 L 293 484.86360182378166 L 294 485.04973704919706 L 295 485.2349495006107 L 296 485.4192371201085 L 297 485.6025978600521 L 298 485.7850296831017 L 299 485.9665305622391 L 300 486.1470984807896 L 301 486.32673143244506 L 302 486.50542742128533 L 303 486.6831844618015 L 304 486.86000057891715 L 305 487.0358738080104 L 306 487.21080219493626 L 307 487.38478379604777 L 308 487.5578166782177 L 309 487.72989891886033 L 310 487.90102860595255 L 311 488.0712038380551 L 312 488.2404227243338 L 313 488.4086833845807 L 314 488.57598394923446 L 315 488.7423225594017 L 316 488.90769736687736 L 317 489.0721065341653 L 318 489.23554823449865 L 319 489.3980206518602 L 320 489.55952198100255 L 321 489.72005042746815 L 322 489.87960420760925 L 323 490.0381815486077 L 324 490.1957806884948 L 325 490.35239987617035 L 326 490.508037371423 L 327 490.66269144494873 L 328 490.8163603783706 L 329 490.96904246425754 L 330 491.12073600614355 L 331 491.27143931854636 L 332 491.4211507269863 L 333 491.5698685680048 L 334 491.7175911891829 L 335 491.86431694915973 L 336 492.0100442176505 L 337 492.1547713754649 L 338 492.29849681452487 L 339 492.4412189378826 L 340 492.5829361597381 L 341 492.72364690545714 L 342 492.8633496115883 L 343 493.00204272588087 L 344 493.1397247073016 L 345 493.2763940260521 L 346 493.41204916358583 L 347 493.54668861262485 L 348 493.6803108771767 L 349 493.81291447255086 L 350 493.9444979253755 L 351 494.0750597736136 L 352 494.2045985665792 L 353 494.3331128649538 L 354 494.460601240802 L 355 494.58706227758773 L 356 494.71249457018956 L 357 494.83689672491664 L 358 494.96026735952415 L 359 495.0826051032285 L 360 495.2039085967226 L 361 495.32417649219127 L 362 495.4434074533257 L 363 495.56160015533857 L 364 495.67875328497905 L 365 495.79486554054677 L 366 495.90993563190676 L 367 496.02396228050367 L 368 496.1369442193759 L 369 496.2488801931697 L 370 496.3597689581533 L 371 496.4696092822303 L 372 496.5783999449539 L 373 496.68613973754 L 374 496.79282746288095 L 375 496.8984619355586 L 376 497.0030419818578 L 377 497.106566439779 L 378 497.20903415905155 L 379 497.3104440011464 L 380 497.4107948392883 L 381 497.5100855584692 L 382 497.6083150554599 L 383 497.7054822388224 L 384 497.8015860289225 L 385 497.8966253579412 L 386 497.99059916988693 L 387 498.08350642060725 L 388 498.1753460778003 L 389 498.26611712102635 L 390 498.3558185417193 L 391 498.4444493431975 L 392 498.53200854067524 L 393 498.6184951612734 L 394 498.70390824403046 L 395 498.7882468399131 L 396 498.87151001182656 L 397 498.95369683462536 L 398 499.0348063951235 L 399 499.1148377921045 L 400 499.19379013633124 L 401 499.2716625505565 L 402 499.3484541695319 L 403 499.4241641400181 L 404 499.4987916207939 L 405 499.5723357826659 L 406 499.64479580847745 L 407 499.716170893118 L 408 499.7864602435316 L 409 499.85566307872637 L 410 499.92377862978253 L 411 499.99080613986143 L 412 500.05674486421356 L 413 500.1215940701871 L 414 500.185353037236 L 415 500.24802105692794 L 416 500.3095974329523 L 417 500.3700814811276 L 418 500.42947252940974 L 419 500.48776991789856 L 420 500.544972998846 L 421 500.60108113666286 L 422 500.65609370792595 L 423 500.710010101385 L 424 500.7628297179696 L 425 500.81455197079566 L 426 500.86517628517197 L 427 500.91470209860665 L 428 500.9631288608135 L 429 501.0104560337178 L 430 501.05668309146256 L 431 501.10180952041424 L 432 501.1458348191686 L 433 501.1887584985562 L 434 501.23058008164753 L 435 501.27129910375885 L 436 501.310915112457 L 437 501.3494276675645 L 438 501.3868363411645 L 439 501.4231407176054 L 440 501.45834039350564 L 441 501.4924349777581 L 442 501.5254240915344 L 443 501.5573073682891 L 444 501.588084453764 L 445 501.61775500599174 L 446 501.6463186952999 L 447 501.6737752043143 L 448 501.7001242279631 L 449 501.7253654734794 L 450 501.74949866040544 L 451 501.77252352059475 L 452 501.7944397982159 L 453 501.8152472497548 L 454 501.83494564401786 L 455 501.85353476213425 L 456 501.87101439755827 L 457 501.8873843560721 L 458 501.90264445578737 L 459 501.9167945271476 L 460 501.92983441292995 L 461 501.94176396824685 L 462 501.9525830605479 L 463 501.962291569621 L 464 501.97088938759407 L 465 501.9783764189357 L 466 501.9847525804568 L 467 501.9900178013113 L 468 501.9941720229966 L 469 501.9972151993549 L 470 501.99914729657314 L 471 501.99996829318343 L 472 501.9996781800638 L 473 501.99827696043764 L 474 501.995764649874 L 475 501.9921412762875 L 476 501.98740687993774 L 477 501.9815615134291 L 478 501.97460524171004 L 479 501.9665381420724 L 480 501.9573603041505 L 481 501.94707182992033 L 482 501.93567283369805 L 483 501.92316344213907 L 484 501.9095437942365 L 485 501.8948140413197 L 486 501.8789743470524 L 487 501.862024887431 L 488 501.8439658507827 L 489 501.82479743776327 L 490 501.80451986135483 L 491 501.7831333468636 L 492 501.76063813191735 L 493 501.73703446646266 L 494 501.7123226127622 L 495 501.6865028453919 L 496 501.65957545123774 L 497 501.6315407294928 L 498 501.6023989916537 L 499 501.5721505615171 L 500 501.5407957751765 L 501 501.50833498101804 L 502 501.4747685397168 L 503 501.440096824233 L 504 501.4043202198076 L 505 501.3674391239579 L 506 501.3294539464737 L 507 501.2903651094118 L 508 501.2501730470926 L 509 501.20887820609386 L 510 501.1664810452469 L 511 501.1229820356307 L 512 501.0783816605673 L 513 501.0326804156158 L 514 500.98587880856746 L 515 500.9379773594396 L 516 500.88897660047013 L 517 500.8388770761114 L 518 500.78767934302414 L 519 500.73538397007167 L 520 500.68199153831307 L 521 500.6275026409971 L 522 500.57191788355533 L 523 500.51523788359566 L 524 500.4574632708953 L 525 500.3985946873937 L 526 500.3386327871857 L 527 500.277578236514 L 528 500.21543171376186 L 529 500.15219390944554 L 530 500.08786552620677 L 531 500.0224472788045 L 532 499.9559398941077 L 533 499.8883441110865 L 534 499.8196606808045 L 535 499.7498903664101 L 536 499.6790339431285 L 537 499.6070921982524 L 538 499.5340659311339 L 539 499.4599559531751 L 540 499.3847630878195 L 541 499.30848817054266 L 542 499.23113204884277 L 543 499.15269558223156 L 544 499.0731796422245 L 545 498.9925851123312 L 546 498.91091288804563 L 547 498.82816387683613 L 548 498.7443389981353 L 549 498.65943918332977 L 550 498.57346537574995 L 551 498.48641853065953 L 552 498.3982996152448 L 553 498.3091096086039 L 554 498.21884950173586 L 555 498.12752029753 L 556 498.0351230107542 L 557 497.9416586680441 L 558 497.8471283078914 L 559 497.7515329806325 L 560 497.65487374843667 L 561 497.5571516852944 L 562 497.4583678770054 L 563 497.3585234211665 L 564 497.2576194271595 L 565 497.15565701613895 L 566 497.0526373210194 L 567 496.94856148646306 L 568 496.84343066886703 L 569 496.7372460363504 L 570 496.63000876874145 L 571 496.52172005756415 L 572 496.4123811060253 L 573 496.30199312900106 L 574 496.19055735302334 L 575 496.07807501626627 L 576 495.9645473685325 L 577 495.8499756712391 L 578 495.73436119740376 L 579 495.6177052316306 L 580 495.50000907009576 L 581 495.3812740205332 L 582 495.26150140222006 L 583 495.1406925459619 L 584 495.0188487940781 L 585 494.89597150038696 L 586 494.77206203019034 L 587 494.647121760259 L 588 494.52115207881684 L 589 494.3941543855256 L 590 494.26613009146956 L 591 494.1370806191395 L 592 494.00700740241723 L 593 493.87591188655915 L 594 493.74379552818095 L 595 493.6106597952408 L 596 493.47650616702316 L 597 493.3413361341225 L 598 493.2051511984268 L 599 493.0679528731006 L 600 492.9297426825682 L 601 492.79052216249704 L 602 492.65029285978034 L 603 492.5090563325201 L 604 492.36681415000953 L 605 492.2235678927159 L 606 492.0793191522627 L 607 491.93406953141243 L 608 491.7878206440481 L 609 491.640574115156 L 610 491.492331580807 L 611 491.34309468813893 L 612 491.192865095338 L 613 491.0416444716202 L 614 490.8894344972133 L 615 490.7362368633376 L 616 490.58205327218735 L 617 490.42688543691213 L 618 490.2707350815974 L 619 490.1136039412454 L 620 489.9554937617562 L 621 489.7964062999078 L 622 489.63634332333714 L 623 489.47530661052 L 624 489.31329795075163 L 625 489.15031914412657 L 626 488.9863720015187 L 627 488.8214583445613 L 628 488.6555800056266 L 629 488.48873882780555 L 630 488.32093666488737 L 631 488.1521753813388 L 632 487.98245685228335 L 633 487.8117829634809 L 634 487.6401556113061 L 635 487.4675767027278 L 636 487.2940481552876 L 637 487.1195718970788 L 638 486.9441498667246 L 639 486.76778401335696 L 640 486.5904762965946 L 641 486.4122286865214 L 642 486.23304316366455 L 643 486.0529217189725 L 644 485.8718663537928 L 645 485.6898790798498 L 646 485.5069619192224 L 647 485.32311690432175 L 648 485.1383460778683 L 649 484.95265149286934 L 650 484.7660352125961 L 651 484.5784993105608 L 652 484.3900458704939 L 653 484.2006769863205 L 654 484.0103947621374 L 655 483.8192013121896 L 656 483.6270987608467 L 657 483.4340892425796 L 658 483.2401749019365 L 659 483.04535789351917 L 660 482.84964038195903 L 661 482.6530245418931 L 662 482.4555125579398 L 663 482.25710662467475 L 664 482.05780894660614 L 665 481.8576217381507 L 666 481.65654722360864 L 667 481.4545876371392 L 668 481.2517452227356 L 669 481.04802223420046 L 670 480.84342093512043 L 671 480.63794359884116 L 672 480.431592508442 L 673 480.2243699567108 L 674 480.0162782461182 L 675 479.8073196887921 L 676 479.5974966064922 L 677 479.38681133058395 L 678 479.1752662020126 L 679 478.9628635712774 L 680 478.74960579840547 L 681 478.53549525292533 L 682 478.32053431384094 L 683 478.1047253696049 L 684 477.8880708180922 L 685 477.67057306657335 L 686 477.4522345316878 L 687 477.2330576394171 L 688 477.0130448250577 L 689 476.7921985331942 L 690 476.570521217672 L 691 476.3480153415702 L 692 476.1246833771739 L 693 475.9005278059471 L 694 475.675551118505 L 695 475.4497558145862 L 696 475.2231444030251 L 697 474.99571940172405 L 698 474.767483337625 L 699 474.53843874668195 L 700 474.30858817383245 L 701 474.07793417296944 L 702 473.8464793069126 L 703 473.61422614738046 L 704 473.38117727496126 L 705 473.1473352790844 L 706 472.91270275799207 L 707 472.67728231870973 L 708 472.4410765770176 L 709 472.20408815742155 L 710 471.96631969312386 L 711 471.7277738259938 L 712 471.48845320653857 L 713 471.24836049387375 L 714 471.00749835569366 L 715 470.76586946824176 L 716 470.523476516281 L 717 470.28032219306397 L 718 470.0364092003028 L 719 469.7917402481394 L 720 469.5463180551151 L 721 469.30014534814063 L 722 469.05322486246587 L 723 468.8055593416491 L 724 468.5571515375269 L 725 468.3080042101836 L 726 468.05812012792006 L 727 467.8075020672236 L 728 467.5561528127368 L 729 467.30407515722646 L 730 467.051271901553 L 731 466.79774585463866 L 732 466.54349983343707 L 733 466.2885366629014 L 734 466.03285917595304 L 735 465.77647021345035 L 736 465.5193726241571 L 737 465.2615692647103 L 738 465.00306299958925 L 739 464.74385670108296 L 740 464.4839532492589 L 741 464.22335553193045 L 742 463.9620664446252 L 743 463.7000888905524 L 744 463.4374257805712 L 745 463.1740800331578 L 746 462.91005457437336 L 747 462.64535233783147 L 748 462.37997626466534 L 749 462.1139293034952 L 750 461.8472144103956 L 751 461.57983454886283 L 752 461.3117926897813 L 753 461.0430918113913 L 754 460.7737348992552 L 755 460.5037249462249 L 756 460.2330649524082 L 757 459.96175792513554 L 758 459.68980687892673 L 759 459.4172148354573 L 760 459.14398482352476 L 761 458.8701198790154 L 762 458.5956230448703 L 763 458.3204973710514 L 764 458.04474591450776 L 765 457.7683717391417 L 766 457.4913779157745 L 767 457.21376752211245 L 768 456.9355436427127 L 769 456.65670936894867 L 770 456.3772677989763 L 771 456.0972220376989 L 772 455.81657519673314 L 773 455.53533039437445 L 774 455.2534907555621 L 775 454.97105941184486 L 776 454.68803950134577 L 777 454.4044341687276 L 778 454.1202465651578 L 779 453.8354798482735 L 780 453.5501371821464 L 781 453.2642217372476 L 782 452.97773669041254 L 783 452.69068522480535 L 784 452.4030705298838 L 785 452.11489580136384 L 786 451.82616424118385 L 787 451.5368790574694 L 788 451.24704346449727 L 789 450.95666068265996 L 790 450.6657339384298 L 791 450.3742664643233 L 792 450.0822614988648 L 793 449.78972228655107 L 794 449.4966520778147 L 795 449.20305412898824 L 796 448.90893170226826 L 797 448.61428806567864 L 798 448.3191264930345 L 799 448.0234502639059 L 800 447.7272626635812 L 801 447.43056698303064 L 802 447.1333665188699 L 803 446.8356645733233 L 804 446.5374644541871 L 805 446.23876947479306 L 806 445.939582953971 L 807 445.6399082160126 L 808 445.33974859063414 L 809 445.0391074129395 L 810 444.73798802338297 L 811 444.4363937677326 L 812 444.1343279970325 L 813 443.8317940675659 L 814 443.5287953408178 L 815 443.2253351834376 L 816 442.9214169672017 L 817 442.61704406897616 L 818 442.31221987067875 L 819 442.00694775924194 L 820 441.701231126575 L 821 441.3950733695262 L 822 441.0884778898452 L 823 440.78144809414545 L 824 440.4739873938658 L 825 440.1660992052332 L 826 439.85778694922425 L 827 439.54905405152755 L 828 439.2399039425056 L 829 438.9303400571562 L 830 438.620365835075 L 831 438.3099847204168 L 832 437.9992001618576 L 833 437.6880156125557 L 834 437.3764345301143 L 835 437.064460376542 L 836 436.7520966182152 L 837 436.439346725839 L 838 436.1262141744091 L 839 435.8127024431727 L 840 435.4988150155905 L 841 435.18455537929714 L 842 434.8699270260632 L 843 434.554933451756 L 844 434.2395781563009 L 845 433.9238646436425 L 846 433.60779642170536 L 847 433.2913770023554 L 848 432.9746099013606 L 849 432.6574986383523 L 850 432.3400467367856 L 851 432.0222577239007 L 852 431.70413513068326 L 853 431.3856824918255 L 854 431.0669033456868 L 855 430.74780123425444 L 856 430.4283797031041 L 857 430.1086423013607 L 858 429.7885925816587 L 859 429.46823410010273 L 860 429.14757041622823 L 861 428.8266050929618 L 862 428.5053416965814 L 863 428.1837837966771 L 864 427.8619349661111 L 865 427.5397987809782 L 866 427.217378820566 L 867 426.89467866731525 L 868 426.5717019067799 L 869 426.24845212758726 L 870 425.92493292139824 L 871 425.60114788286734 L 872 425.27710060960277 L 873 424.9527947021264 L 874 424.628233763834 L 875 424.3034214009548 L 876 423.9783612225117 L 877 423.6530568402811 L 878 423.3275118687529 L 879 423.00172992508993 L 880 422.67571462908836 L 881 422.3494696031369 L 882 422.02299847217705 L 883 421.69630486366236 L 884 421.3693924075185 L 885 421.0422647361027 L 886 420.7149254841636 L 887 420.38737828880045 L 888 420.0596267894233 L 889 419.73167462771204 L 890 419.40352544757627 L 891 419.07518289511455 L 892 418.7466506185741 L 893 418.4179322683102 L 894 418.0890314967456 L 895 417.7599519583298 L 896 417.4306973094989 L 897 417.1012712086344 L 898 416.771677316023 L 899 416.44191929381554 L 900 416.1120008059867 L 901 415.78192551829414 L 902 415.4516970982376 L 903 415.12131921501845 L 904 414.79079553949845 L 905 414.46012974415964 L 906 414.129325503063 L 907 413.7983864918077 L 908 413.4673163874906 L 909 413.136118868665 L 910 412.80479761529983 L 911 412.47335630873897 L 912 412.1417986316602 L 913 411.8101282680343 L 914 411.4783489030841 L 915 411.1464642232437 L 916 410.8144779161171 L 917 410.48239367043766 L 918 410.1502151760269 L 919 409.81794612375364 L 920 409.4855902054927 L 921 409.1531511140844 L 922 408.82063254329273 L 923 408.48803818776526 L 924 408.1553717429913 L 925 407.82263690526133 L 926 407.4898373716257 L 927 407.1569768398535 L 928 406.8240590083916 L 929 406.49108757632376 L 930 406.1580662433291 L 931 405.8249987096411 L 932 405.4918886760068 L 933 405.1587398436454 L 934 404.8255559142071 L 935 404.4923405897321 L 936 404.1590975726096 L 937 403.82583056553625 L 938 403.4925432714754 L 939 403.15923939361585 L 940 402.8259226353304 L 941 402.4925967001354 L 942 402.1592652916487 L 943 401.8259321135493 L 944 401.4926008695358 L 945 401.1592752632851 L 946 400.8259589984118 L 947 400.4926557784264 L 948 400.1593693066946 L 949 399.82610328639606 L 950 399.4928614204831 L 951 399.15964741163964 L 952 398.82646496224015 L 953 398.4933177743084 L 954 398.16020954947646 L 955 397.82714398894336 L 956 397.49412479343414 L 957 397.1611556631586 L 958 396.8282402977703 L 959 396.49538239632557 L 960 396.162585657242 L 961 395.82985377825776 L 962 395.4971904563903 L 963 395.16459938789524 L 964 394.83208426822557 L 965 394.4996487919903 L 966 394.1672966529135 L 967 393.8350315437933 L 968 393.50285715646083 L 969 393.17077718173925 L 970 392.83879530940254 L 971 392.5069152281348 L 972 392.1751406254891 L 973 391.84347518784654 L 974 391.51192260037516 L 975 391.1804865469892 L 976 390.849170710308 L 977 390.51797877161533 L 978 390.18691441081825 L 979 389.85598130640614 L 980 389.52518313541015 L 981 389.194523573362 L 982 388.8640062942536 L 983 388.53363497049565 L 984 388.2034132728773 L 985 387.87334487052505 L 986 387.54343343086225 L 987 387.21368261956815 L 988 386.88409610053725 L 989 386.5546775358386 L 990 386.22543058567516 L 991 385.8963589083429 L 992 385.5674661601904 L 993 385.2387559955782 L 994 384.910232066838 L 995 384.5818980242324 L 996 384.253757515914 L 997 383.925814187885 L 998 383.5980716839569 L 999 383.2705336457097 L 1000 382.94320371245146 L 1001 382.6160855211782 L 1002 382.28918270653304 L 1003 381.9624989007661 L 1004 381.6360377336941 L 1005 381.30980283266 L 1006 380.9837978224927 L 1007 380.6580263254668 L 1008 380.332491961262 L 1009 380.0071983469237 L 1010 379.68214909682195 L 1011 379.3573478226117 L 1012 379.03279813319267 L 1013 378.7085036346693 L 1014 378.3844679303103 L 1015 378.06069462050914 L 1016 377.7371873027436 L 1017 377.4139495715363 L 1018 377.09098501841413 L 1019 376.7682972318688 L 1020 376.44588979731685 L 1021 376.12376629705983 L 1022 375.8019303102444 L 1023 375.48038541282267 L 1024 375.1591351775124 L 1025 374.8381831737574 L 1026 374.5175329676876 L 1027 374.1971881220799 L 1028 373.87715219631815 L 1029 373.55742874635376 L 1030 373.23802132466625 L 1031 372.9189334802237 L 1032 372.60016875844326 L 1033 372.2817307011519 L 1034 371.963622846547 L 1035 371.6458487291571 L 1036 371.32841187980233 L 1037 371.0113158255555 L 1038 370.69456408970296 L 1039 370.37816019170515 L 1040 370.06210764715763 L 1041 369.74640996775213 L 1042 369.4310706612374 L 1043 369.1160932313802 L 1044 368.8014811779266 L 1045 368.4872379965628 L 1046 368.17336717887645 L 1047 367.8598722123179 L 1048 367.54675658016134 L 1049 367.23402376146606 L 1050 366.921677231038 L 1051 366.6097204593909 L 1052 366.298156912708 L 1053 365.9869900528032 L 1054 365.67622333708283 L 1055 365.36586021850724 L 1056 365.0559041455523 L 1057 364.7463585621712 L 1058 364.4372269077562 L 1059 364.1285126171002 L 1060 363.82021912035884 L 1061 363.51234984301226 L 1062 363.204908205827 L 1063 362.89789762481803 L 1064 362.59132151121105 L 1065 362.28518327140404 L 1066 361.9794863069298 L 1067 361.67423401441823 L 1068 361.36942978555834 L 1069 361.06507700706055 L 1070 360.7611790606193 L 1071 360.4577393228754 L 1072 360.15476116537826 L 1073 359.8522479545488 L 1074 359.55020305164174 L 1075 359.2486298127085 L 1076 358.9475315885598 L 1077 358.6469117247282 L 1078 358.3467735614315 L 1079 358.04712043353493 L 1080 357.7479556705148 L 1081 357.44928259642074 L 1082 357.15110452983953 L 1083 356.8534247838577 L 1084 356.5562466660249 L 1085 356.2595734783171 L 1086 355.96340851710016 L 1087 355.66775507309274 L 1088 355.3726164313301 L 1089 355.0779958711273 L 1090 354.78389666604323 L 1091 354.49032208384375 L 1092 354.1972753864657 L 1093 353.90475982998043 L 1094 353.6127786645579 L 1095 353.32133513443006 L 1096 353.03043247785547 L 1097 352.7400739270829 L 1098 352.4502627083155 L 1099 352.16100204167486 L 1100 351.8722951411655 L 1101 351.58414521463885 L 1102 351.2965554637578 L 1103 351.009529083961 L 1104 350.72306926442764 L 1105 350.43717918804157 L 1106 350.15186203135625 L 1107 349.8671209645594 L 1108 349.58295915143765 L 1109 349.29937974934165 L 1110 349.01638590915064 L 1111 348.73398077523785 L 1112 348.4521674854351 L 1113 348.17094917099826 L 1114 347.8903289565724 L 1115 347.61030996015694 L 1116 347.3308952930713 L 1117 347.05208805992 L 1118 346.7738913585582 L 1119 346.49630828005763 L 1120 346.21934190867177 L 1121 345.94299532180196 L 1122 345.667271589963 L 1123 345.392173776749 L 1124 345.1177049387996 L 1125 344.84386812576565 L 1126 344.57066638027555 L 1127 344.29810273790156 L 1128 344.02618022712574 L 1129 343.7549018693065 L 1130 343.484270678645 L 1131 343.2142896621517 L 1132 342.94496181961296 L 1133 342.6762901435576 L 1134 342.4082776192236 L 1135 342.14092722452517 L 1136 341.8742419300196 L 1137 341.6082246988739 L 1138 341.34287848683255 L 1139 341.0782062421839 L 1140 340.8142109057281 L 1141 340.5508954107438 L 1142 340.2882626829561 L 1143 340.02631564050364 L 1144 339.76505719390656 L 1145 339.50449024603364 L 1146 339.2446176920707 L 1147 338.98544241948764 L 1148 338.72696730800726 L 1149 338.46919522957245 L 1150 338.2121290483148 L 1151 337.9557716205227 L 1152 337.7001257946091 L 1153 337.4451944110808 L 1154 337.190980302506 L 1155 336.9374862934833 L 1156 336.6847152006101 L 1157 336.4326698324518 L 1158 336.1813529895095 L 1159 335.93076746419024 L 1160 335.68091604077495 L 1161 335.4318014953881 L 1162 335.18342659596635 L 1163 334.93579410222844 L 1164 334.6889067656438 L 1165 334.44276732940267 L 1166 334.197378528385 L 1167 333.9527430891306 L 1168 333.70886372980846 L 1169 333.4657431601868 L 1170 333.2233840816026 L 1171 332.98178918693225 L 1172 332.7409611605608 L 1173 332.5009026783528 L 1174 332.2616164076223 L 1175 332.0231050071031 L 1176 331.7853711269195 L 1177 331.5484174085565 L 1178 331.3122464848308 L 1179 331.0768609798614 L 1180 330.8422635090403 L 1181 330.6084566790038 L 1182 330.37544308760295 L 1183 330.1432253238754 L 1184 329.91180596801604 L 1185 329.6811875913488 L 1186 329.4513727562976 L 1187 329.22236401635826 L 1188 328.9941639160701 L 1189 328.7667749909872 L 1190 328.540199767651 L 1191 328.31444076356166 L 1192 328.08950048715025 L 1193 327.8653814377507 L 1194 327.64208610557256 L 1195 327.41961697167267 L 1196 327.19797650792793 L 1197 326.97716717700814 L 1198 326.7571914323478 L 1199 326.5380517181196 L 1200 326.3197504692072 L 1201 326.1022901111776 L 1202 325.88567306025476 L 1203 325.6699017232927 L 1204 325.4549784977483 L 1205 325.24090577165543 L 1206 325.02768592359763 L 1207 324.81532132268205 L 1208 324.6038143285133 L 1209 324.3931672911668 L 1210 324.1833825511631 L 1211 323.9744624394416 L 1212 323.76640927733473 L 1213 323.55922537654214 L 1214 323.352913039105 L 1215 323.1474745573805 L 1216 322.94291221401636 L 1217 322.7392282819254 L 1218 322.5364250242603 L 1219 322.3345046943885 L 1220 322.1334695358672 L 1221 321.93332178241826 L 1222 321.73406365790356 L 1223 321.53569737630016 L 1224 321.33822514167593 L 1225 321.14164914816473 L 1226 320.9459715799422 L 1227 320.7511946112016 L 1228 320.55732040612935 L 1229 320.3643511188814 L 1230 320.17228889355897 L 1231 319.9811358641847 L 1232 319.7908941546793 L 1233 319.6015658788374 L 1234 319.4131531403048 L 1235 319.2256580325543 L 1236 319.0390826388629 L 1237 318.8534290322888 L 1238 318.66869927564767 L 1239 318.48489542149065 L 1240 318.30201951208085 L 1241 318.1200735793709 L 1242 317.93905964498055 L 1243 317.75897972017367 L 1244 317.57983580583664 L 1245 317.40162989245533 L 1246 317.2243639600939 L 1247 317.0480399783718 L 1248 316.87265990644255 L 1249 316.69822569297196 L 1250 316.524739276116 L 1251 316.3522025834999 L 1252 316.18061753219615 L 1253 316.0099860287035 L 1254 315.84030996892596 L 1255 315.67159123815117 L 1256 315.50383171103005 L 1257 315.33703325155557 L 1258 315.1711977130423 L 1259 315.0063269381056 L 1260 314.8424227586412 L 1261 314.67948699580506 L 1262 314.5175214599928 L 1263 314.3565279508199 L 1264 314.19650825710136 L 1265 314.0374641568322 L 1266 313.87939741716747 L 1267 313.7223097944026 L 1268 313.566203033954 L 1269 313.41107887033974 L 1270 313.25693902715994 L 1271 313.1037852170779 L 1272 312.95161914180113 L 1273 312.80044249206225 L 1274 312.65025694760016 L 1275 312.50106417714164 L 1276 312.3528658383826 L 1277 312.20566357796974 L 1278 312.0594590314822 L 1279 311.91425382341345 L 1280 311.7700495671532 L 1281 311.6268478649695 L 1282 311.48465030799076 L 1283 311.3434584761886 L 1284 311.2032739383595 L 1285 311.06409825210807 L 1286 310.9259329638294 L 1287 310.788779608692 L 1288 310.6526397106205 L 1289 310.5175147822791 L 1290 310.3834063250545 L 1291 310.25031582903927 L 1292 310.11824477301536 L 1293 309.9871946244376 L 1294 309.8571668394174 L 1295 309.72816286270654 L 1296 309.6001841276812 L 1297 309.4732320563261 L 1298 309.34730805921845 L 1299 309.22241353551243 L 1300 309.0985498729238 L 1301 308.9757184477141 L 1302 308.85392062467577 L 1303 308.7331577571166 L 1304 308.61343118684505 L 1305 308.4947422441551 L 1306 308.37709224781156 L 1307 308.2604825050354 L 1308 308.14491431148923 L 1309 308.0303889512629 L 1310 307.91690769685925 L 1311 307.8044718091799 L 1312 307.6930825375114 L 1313 307.58274111951107 L 1314 307.47344878119367 L 1315 307.36520673691723 L 1316 307.2580161893702 L 1317 307.15187832955746 L 1318 307.0467943367874 L 1319 306.94276537865903 L 1320 306.8397926110484 L 1321 306.7378771780965 L 1322 306.6370202121958 L 1323 306.5372228339784 L 1324 306.43848615230286 L 1325 306.3408112642425 L 1326 306.2441992550729 L 1327 306.1486511982597 L 1328 306.0541681554471 L 1329 305.9607511764457 L 1330 305.86840129922086 L 1331 305.7771195498815 L 1332 305.6869069426683 L 1333 305.5977644799427 L 1334 305.5096931521755 L 1335 305.4226939379361 L 1336 305.3367678038816 L 1337 305.2519157047459 L 1338 305.16813858332927 L 1339 305.08543737048774 L 1340 305.00381298512275 L 1341 304.92326633417116 L 1342 304.8437983125949 L 1343 304.7654098033712 L 1344 304.6881016774826 L 1345 304.6118747939076 L 1346 304.5367299996107 L 1347 304.46266812953337 L 1348 304.38969000658443 L 1349 304.3177964416312 L 1350 304.2469882334903 L 1351 304.1772661689189 L 1352 304.1086310226059 L 1353 304.04108355716335 L 1354 303.9746245231178 L 1355 303.9092546589025 L 1356 303.84497469084846 L 1357 303.7817853331769 L 1358 303.7196872879912 L 1359 303.6586812452689 L 1360 303.5987678828544 L 1361 303.5399478664511 L 1362 303.48222184961406 L 1363 303.4255904737429 L 1364 303.3700543680746 L 1365 303.3156141496763 L 1366 303.26227042343896 L 1367 303.2100237820699 L 1368 303.15887480608694 L 1369 303.1088240638115 L 1370 303.0598721113623 L 1371 303.01201949264964 L 1372 302.9652667393686 L 1373 302.91961437099377 L 1374 302.8750628947733 L 1375 302.83161280572307 L 1376 302.7892645866214 L 1377 302.74801870800366 L 1378 302.70787562815696 L 1379 302.6688357931151 L 1380 302.63089963665357 L 1381 302.59406758028484 L 1382 302.5583400332537 L 1383 302.52371739253243 L 1384 302.49020004281675 L 1385 302.45778835652123 L 1386 302.4264826937755 L 1387 302.3962834024198 L 1388 302.3671908180016 L 1389 302.3392052637714 L 1390 302.31232705067976 L 1391 302.286556477373 L 1392 302.2618938301907 L 1393 302.2383393831619 L 1394 302.2158933980025 L 1395 302.19455612411207 L 1396 302.17432779857126 L 1397 302.155208646139 L 1398 302.1371988792501 L 1399 302.12029869801296 L 1400 302.10450829020715 L 1401 302.0898278312815 L 1402 302.0762574843521 L 1403 302.0637974002004 L 1404 302.0524477172716 L 1405 302.04220856167325 L 1406 302.03308004717366 L 1407 302.02506227520064 L 1408 302.0181553348404 L 1409 302.0123593028367 L 1410 302.0076742435899 L 1411 302.0041002091561 L 1412 302.00163723924675 L 1413 302.0002853612282 L 1414 302.00004459012126 L 1415 302.0009149286012 L 1416 302.00289636699756 L 1417 302.0059888832944 L 1418 302.01019244313045 L 1419 302.0155069997996 L 1420 302.02193249425113 L 1421 302.02946885509084 L 1422 302.0381159985815 L 1423 302.0478738286437 L 1424 302.05874223685726 L 1425 302.0707211024622 L 1426 302.08381029236017 L 1427 302.09800966111584 L 1428 302.1133190509586 L 1429 302.12973829178424 L 1430 302.1472672011569 L 1431 302.16590558431125 L 1432 302.1856532341542 L 1433 302.2065099312676 L 1434 302.22847544391067 L 1435 302.25154952802234 L 1436 302.2757319272242 L 1437 302.301022372823 L 1438 302.3274205838143 L 1439 302.3549262668847 L 1440 302.38353911641593 L 1441 302.4132588144877 L 1442 302.4440850308813 L 1443 302.4760174230837 L 1444 302.5090556362909 L 1445 302.5431993034118 L 1446 302.57844804507283 L 1447 302.6148014696216 L 1448 302.6522591731316 L 1449 302.6908207394065 L 1450 302.7304857399847 L 1451 302.7712537341446 L 1452 302.8131242689087 L 1453 302.85609687904946 L 1454 302.9001710870938 L 1455 302.9453464033287 L 1456 302.9916223258067 L 1457 303.0389983403513 L 1458 303.087473920563 L 1459 303.1370485278246 L 1460 303.18772161130767 L 1461 303.2394926079785 L 1462 303.2923609426042 L 1463 303.3463260277596 L 1464 303.40138726383293 L 1465 303.4575440390335 L 1466 303.5147957293976 L 1467 303.57314169879584 L 1468 303.6325812989404 L 1469 303.6931138693919 L 1470 303.75473873756675 L 1471 303.8174552187449 L 1472 303.88126261607715 L 1473 303.94616022059313 L 1474 304.01214731120893 L 1475 304.0792231547355 L 1476 304.1473870058861 L 1477 304.21663810728563 L 1478 304.2869756894779 L 1479 304.358398970935 L 1480 304.4309071580657 L 1481 304.50449944522416 L 1482 304.5791750147191 L 1483 304.6549330368227 L 1484 304.7317726697799 L 1485 304.8096930598179 L 1486 304.8886933411553 L 1487 304.96877263601215 L 1488 305.04993005461915 L 1489 305.1321646952281 L 1490 305.2154756441216 L 1491 305.2998619756234 L 1492 305.3853227521084 L 1493 305.4718570240132 L 1494 305.55946382984695 L 1495 305.6481421962015 L 1496 305.7378911377625 L 1497 305.82870965732064 L 1498 305.920596745782 L 1499 306.01355138217997 L 1500 306.10757253368615 L 1501 306.2026591556221 L 1502 306.2988101914707 L 1503 306.3960245728882 L 1504 306.49430121971574 L 1505 306.59363903999156 L 1506 306.6940369299632 L 1507 306.7954937740996 L 1508 306.8980084451034 L 1509 307.0015798039239 L 1510 307.10620669976925 L 1511 307.2118879701194 L 1512 307.3186224407391 L 1513 307.42640892569096 L 1514 307.53524622734847 L 1515 307.64513313640936 L 1516 307.7560684319091 L 1517 307.86805088123447 L 1518 307.98107924013715 L 1519 308.09515225274765 L 1520 308.2102686515893 L 1521 308.3264271575921 L 1522 308.4436264801072 L 1523 308.56186531692117 L 1524 308.68114235427026 L 1525 308.8014562668553 L 1526 308.9228057178564 L 1527 309.0451893589475 L 1528 309.1686058303116 L 1529 309.2930537606559 L 1530 309.41853176722674 L 1531 309.5450384558256 L 1532 309.67257242082366 L 1533 309.80113224517834 L 1534 309.9307165004484 L 1535 310.06132374681016 L 1536 310.1929525330733 L 1537 310.3256013966971 L 1538 310.4592688638067 L 1539 310.59395344920927" stroke-linecap="round" stroke-linejoin="round" stroke-miterlimit="10" stroke-width="31"/></g></svg>